# xmcd CD database file
#
# Track frame offsets:
#	150
#	14296
#	28511
#	42616
#	56078
#	70131
#	83948
#	97819
#	111527
#	126167
#	141143
#	155268
#	170193
#	184120
#	197888
#	212759
#	225562
#	239097
#	252290
#	264230
#	279573
#	291623
#	305783
#	319522
#	333001
#
# Disc length: 4619 seconds
#
# Revision: 0
# Processed by: cddbd v1.5.2PL0 Copyright (c) Steve Scherf et al.
# Submitted via: CDex 1.70beta2
#
DISCID=7b120919
DTITLE=Tanner Gid and his Skillet Lickers - Old timey's favorite band 4
DYEAR=2012
DGENRE=Country
TTITLE0=Show me the way to go home
TTITLE1=Cotton baggin'
TTITLE2=The rovin' gambler
TTITLE3=It ain't gonna rain no more
TTITLE4=Going on down town
TTITLE5=Mississipi sawyer
TTITLE6=Flatwoods
TTITLE7=Never seen the likes since gettin' upstairs
TTITLE8=A night in a blind tiger 1
TTITLE9=A night in a blind tiger 2
TTITLE10=Ya gotta quit kickin' my dog around
TTITLE11=Turkey in the straw
TTITLE12=Polly wolly doo
TTITLE13=Uncle Bud
TTITLE14=Liberty
TTITLE15=Sal let me chaw your rosin
TTITLE16=Slow Buck
TTITLE17=Cumberland gap
TTITLE18=Hen cackle
TTITLE19=Tra-le-la-la
TTITLE20=Hinkey-dinkey-dee
TTITLE21=Keep your gal at home
TTITLE22=Cotton patch
TTITLE23=Flop-eared mule
TTITLE24=Soldier's joy
EXTD=YEAR: 2012
EXTT0=
EXTT1=
EXTT2=
EXTT3=
EXTT4=
EXTT5=
EXTT6=
EXTT7=
EXTT8=
EXTT9=
EXTT10=
EXTT11=
EXTT12=
EXTT13=
EXTT14=
EXTT15=
EXTT16=
EXTT17=
EXTT18=
EXTT19=
EXTT20=
EXTT21=
EXTT22=
EXTT23=
EXTT24=
PLAYORDER=
